<svg width="200" height="200" viewBox="0 0 200 200" fill="none" xmlns="http://www.w3.org/2000/svg">
  <rect width="200" height="200" fill="#E5E5E5"/>
  <path d="M100 60C88.9543 60 80 68.9543 80 80V120C80 131.046 88.9543 140 100 140C111.046 140 120 131.046 120 120V80C120 68.9543 111.046 60 100 60Z" fill="#A0A0A0"/>
  <path d="M60 100C60 88.9543 68.9543 80 80 80H120C131.046 80 140 88.9543 140 100C140 111.046 131.046 120 120 120H80C68.9543 120 60 111.046 60 100Z" fill="#808080"/>
  <circle cx="100" cy="100" r="15" fill="#E5E5E5"/>
</svg>
